<?xml version="1.0"?>
<svg xmlns:rdf="http://www.w3.org/1999/02/22-rdf-syntax-ns#" xmlns="http://www.w3.org/2000/svg" xmlns:cc="http://web.resource.org/cc/" xmlns:xlink="http://www.w3.org/1999/xlink" xmlns:dc="http://purl.org/dc/elements/1.1/" xmlns:svg="http://www.w3.org/2000/svg" id="svg1" height="128pt" width="128pt">
  <defs id="defs3">
    <linearGradient id="linearGradient843">
      <stop id="stop844" stop-opacity=".38824" offset="0"/>
      <stop id="stop1146" stop-opacity=".19216" offset=".5"/>
      <stop id="stop845" stop-opacity="0" offset="1"/>
    </linearGradient>
    <linearGradient id="linearGradient838">
      <stop id="stop839" stop-color="#fff" stop-opacity="0" offset="0"/>
      <stop id="stop840" stop-color="#fff" offset="1"/>
    </linearGradient>
    <linearGradient id="linearGradient837" y2="-1.1508" xlink:href="#linearGradient838" y1=".35484" x2=".57042" x1=".57042"/>
    <linearGradient id="linearGradient841" y2="2.6668" xlink:href="#linearGradient838" y1=".13158" x2=".58099" x1=".58099"/>
    <linearGradient id="linearGradient842" y2=".31667" xlink:href="#linearGradient843" y1="1.0583" x2=".65493" x1=".64085"/>
    <linearGradient id="linearGradient846" y2=".46842" xlink:href="#linearGradient843" y1=".49474" x2=".86538" x1="1.2885"/>
    <linearGradient id="linearGradient847" xlink:href="#linearGradient843"/>
    <linearGradient id="linearGradient848" y2=".49167" xlink:href="#linearGradient843" y1=".475" x2=".27817" x1="-.34155"/>
    <linearGradient id="linearGradient850" y2=".51579" xlink:href="#linearGradient843" y1=".55789" x2=".18269" x1="-.43269"/>
    <linearGradient id="linearGradient851" y2=".26316" xlink:href="#linearGradient843" y1="-.23058" x2=".53873" x1=".53873"/>
    <linearGradient id="linearGradient853" y2=".34" xlink:href="#linearGradient843" y1="2.0658" x2=".54912" x1=".63648"/>
    <linearGradient id="linearGradient889" y1="1.5983" x2=".47115" x1=".47115" y2=".29474">
      <stop id="stop1103" stop-opacity=".38824" offset="0"/>
      <stop id="stop1107" stop-color="#fff" stop-opacity=".34375" offset=".5"/>
      <stop id="stop1104" stop-color="#fff" stop-opacity=".19608" offset="1"/>
    </linearGradient>
    <radialGradient id="radialGradient945" fx=".50352" fy=".15147" cy=".55147" cx=".51761" r=".43316">
      <stop id="stop949" stop-color="#fff" offset="0"/>
      <stop id="stop1149" stop-color="#fff" stop-opacity=".16078" offset=".52956"/>
      <stop id="stop1148" stop-opacity=".058824" offset=".67709"/>
      <stop id="stop950" stop-opacity="0" offset="1"/>
    </radialGradient>
    <radialGradient id="radialGradient993" fx=".48947" fy=".10526">
      <stop id="stop995" stop-color="#fff" stop-opacity=".61983" offset="0"/>
      <stop id="stop996" stop-color="#fff" stop-opacity="0" offset="1"/>
    </radialGradient>
  </defs>
  <g id="g1179" fill-rule="evenodd" transform="matrix(.67639 0 0 .67639 -180.45 -241.55)">
    <path id="path991" d="m226.04 512.81c10.12 22.36 65.59 23.84 77.87-2.03l5.9-153.71c-2.33 24.99-90.31 25.52-93.35-0.6l9.58 156.34z" stroke-width=".5" fill="url(#linearGradient889)" transform="translate(118.01 31.556)"/>
    <path id="path849" d="m225.15 521.96c10.13 22.35 65.59 23.83 77.88-2.04l5.89-153.71c-2.32 25-90.3 25.52-93.35-0.59l9.58 156.34z" stroke-width=".5" fill="url(#linearGradient850)" transform="translate(118.01 31.556)"/>
    <path id="path827" d="m225.86 519.74c10.12 22.36 65.59 23.84 77.87-2.03l5.9-153.71c-2.33 24.99-90.31 25.51-93.35-0.6l9.58 156.34z" stroke-width=".5" fill="url(#linearGradient846)" transform="translate(118.01 31.556)"/>
    <path id="path1113" d="m261.85 414.98c-33.13 1.32-40.06 16.98-39.94 24.19 0.13 7.21 8.87 19.14 40.72 19.09 3.29-0.05 6.19-0.35 9.03-0.68-2.26 0.18-4.41 0.39-7.12 0.43-31.86 0.05-31.97-8.29-32.1-15.5-0.12-7.21 0.11-25.71 30.97-25.59 30.86-0.24 32.19 15.45 32.31 22.66 0.08 4.16 0.09 9.42-5.87 13.28 10.83-5.06 14.83-12.48 14.75-17-0.13-7.21-9.37-22.19-42.75-20.88z" stroke-width="1pt" fill="url(#linearGradient851)" transform="translate(118.01 31.556)"/>
    <path id="path852" d="m222.47 439.21c0.13 7.21 8.86 19.13 40.72 19.09 31.85-0.55 42.11-15.19 41.99-22.4-0.13-7.21-9.38-22.18-42.76-20.86-33.12 1.31-40.08 16.96-39.95 24.17z" stroke-width="1pt" fill="url(#linearGradient853)" transform="translate(118.01 31.556)"/>
    <path id="path833" d="m233.73 442.97c0.12 7.21 0.22 15.53 32.08 15.48 31.85-0.55 31.32-11.22 31.19-18.43s-1.46-22.9-32.32-22.67c-30.86-0.12-31.08 18.41-30.95 25.62z" stroke-width="1pt" fill="url(#linearGradient837)" transform="translate(118.01 31.556)"/>
    <path id="path829" d="m309.53 364.6c-2.32 24.99-90.3 25.51-93.35-0.6-1.46-23.47 93.03-26.58 93.35 0.6z" transform="translate(118.01 31.556)" stroke="url(#linearGradient847)" stroke-width="1pt" fill="url(#linearGradient848)"/>
    <path id="path944" d="m226.04 520.45c10.12 22.35 65.59 23.83 77.87-2.04l1.3-24.12c55.59-4.3 73.5 76.1-39.02 77.66-111.51 1.55-99.89-70.8-42.11-79.27l1.96 27.77z" stroke-width=".5" fill="url(#radialGradient945)" transform="translate(118.01 31.556)"/>
    <path id="path832" d="m227.26 506.04l0.76 10.69c0.21 2.97-0.64 5.72 3.05 8.4 14.38 13.86 52 11.11 63.37 1.52 3.73-3.98 6.02-5.09 6.36-8.65l1.53-14.51c-8.15-1.18-19.05 9.5-37.41 9.67-18.87 0.17-25.11-9.16-37.66-7.12z" stroke-width="1pt" fill="url(#linearGradient842)" transform="translate(118.01 31.556)"/>
    <g id="g941" style="" stroke-width="1pt" transform="translate(218.78 -5.2992)" fill="url(#linearGradient841)">
      <path id="path830" d="m199.77 548.69c-13.49 14.93-49.88 22.22-73.8 2.03 7.29 20.02 64.3 25.03 73.8-2.03z"/>
      <path id="path940" d="m200.46 547.49c-2.38 2.03-4.74 4.08-7.15 6.08-2.71 1.47-5.46 2.84-8.27 4.1-2.25 1.13-4.73 1.69-7.09 2.53-1.24 0.45-2.5 0.84-3.82 0.95-2.84 0.4-5.66 0.92-8.5 1.24-3.47-0.05-6.96-0.01-10.43-0.12-2.75-0.54-5.53-0.96-8.27-1.56-2.36-0.83-4.78-1.51-7.11-2.44-1.81-0.86-3.7-1.6-5.47-2.53-2.85-1.88-5.69-3.81-8.54-5.66-0.76-0.44-0.47 0.6-0.22 0.96 0.67 1.27 1.44 2.56 2.19 3.76 1.35 1.34 2.67 2.76 4.04 4.04 1.66 0.96 3.25 2.06 4.95 2.92 2.39 0.98 4.73 2.09 7.14 2.99 2.84 0.65 5.66 1.39 8.5 1.98 2.74 0.23 5.47 0.62 8.22 0.76 2.8-0.06 5.61 0.17 8.4-0.23 2.23-0.23 4.48-0.4 6.67-0.94 1.72-0.3 3.41-0.68 5.05-1.29 2.29-0.68 4.5-1.55 6.69-2.49 1.37-0.47 2.38-1.57 3.57-2.35 1.24-0.95 2.6-1.74 3.57-2.97 1-1.11 2.14-2.09 2.84-3.42 0.8-1.19 1.55-2.39 2.07-3.73 0.4-0.94 0.89-1.84 1.22-2.8-0.08 0.07-0.16 0.15-0.25 0.22z"/>
    </g>
    <path id="path992" d="m156.19 541.32a49.665 49.665 0 1 0 -99.327 0 49.665 49.665 0 1 0 99.327 0z" stroke-width="1pt" fill="url(#radialGradient993)" transform="matrix(1 0 0 .25362 275.79 409.3)"/>
  </g>
  <metadata>
    <rdf:RDF>
      <cc:Work>
        <dc:format>image/svg+xml</dc:format>
        <dc:type rdf:resource="http://purl.org/dc/dcmitype/StillImage"/>
        <cc:license rdf:resource="http://creativecommons.org/licenses/publicdomain/"/>
        <dc:publisher>
          <cc:Agent rdf:about="http://openclipart.org/">
            <dc:title>Openclipart</dc:title>
          </cc:Agent>
        </dc:publisher>
        <dc:title>Glass</dc:title>
        <dc:date>2009-04-27T08:08:24</dc:date>
        <dc:description>A glass of water by Andrew Fitzsimon. Etiquette Icon set. From 0.18 OCAL database.</dc:description>
        <dc:source>http://openclipart.org/detail/25330/glass-by-anonymous-25330</dc:source>
        <dc:creator>
          <cc:Agent>
            <dc:title>Anonymous</dc:title>
          </cc:Agent>
        </dc:creator>
        <dc:subject>
          <rdf:Bag>
            <rdf:li>clip art</rdf:li>
            <rdf:li>clipart</rdf:li>
            <rdf:li>drink</rdf:li>
            <rdf:li>etiquette</rdf:li>
            <rdf:li>glass</rdf:li>
            <rdf:li>icon</rdf:li>
            <rdf:li>image</rdf:li>
            <rdf:li>media</rdf:li>
            <rdf:li>png</rdf:li>
            <rdf:li>public domain</rdf:li>
            <rdf:li>svg</rdf:li>
            <rdf:li>water</rdf:li>
          </rdf:Bag>
        </dc:subject>
      </cc:Work>
      <cc:License rdf:about="http://creativecommons.org/licenses/publicdomain/">
        <cc:permits rdf:resource="http://creativecommons.org/ns#Reproduction"/>
        <cc:permits rdf:resource="http://creativecommons.org/ns#Distribution"/>
        <cc:permits rdf:resource="http://creativecommons.org/ns#DerivativeWorks"/>
      </cc:License>
    </rdf:RDF>
  </metadata>
</svg>
